{
  "title": "Straight Outta Compton 2015 CAM XviD AC3-TheMuffinStuffers",
  "uid": 12238400,
  "size": 1799575056,
  "categoryP": "video",
  "categoryS": "movies",
  "magnet": "?xt=urn:btih:1acc2e11a5f108bb9ff93aaeb7ec1e82a0b8967f&amp;dn=Straight+Outta+Compton+2015+CAM+XviD+AC3-TheMuffinStuffers&amp;tr=udp%3A%2F%2Ftracker.openbittorrent.com%3A80&amp;tr=udp%3A%2F%2Fopen.demonii.com%3A1337&amp;tr=udp%3A%2F%2Ftracker.coppersurfer.tk%3A6969&amp;tr=udp%3A%2F%2Fexodus.desync.com%3A6969",
  "seeders": 80,
  "leechers": 14,
  "uploader": "SS132203",
  "files": 4,
  "time": 1439714435,
  "description": "Straight Outta Compton 2015 CAM XviD AC3-TheMuffinStuffers\n &lt;a href=&quot;\nhttp://imgsparrow.co/image/8bn&quot; rel=&quot;nofollow&quot; target=&quot;_NEW&quot;&gt;\nhttp://imgsparrow.co/image/8bn&lt;/a&gt;\n &lt;a href=&quot;\nhttp://imgsparrow.co/image/9b&quot; rel=&quot;nofollow&quot; target=&quot;_NEW&quot;&gt;\nhttp://imgsparrow.co/image/9b&lt;/a&gt;\n\nInfo : - \n\nThank TheMuffinStuffers Not ME!\n &lt;a href=&quot;\nhttp://www.imdb.com/title/tt1398426/&quot; rel=&quot;nofollow&quot; target=&quot;_NEW&quot;&gt;\nhttp://www.imdb.com/title/tt1398426/&lt;/a&gt;\n\nGeneral\nComplete name: Straight.Outta.Compton.2015.CAM.XviD.AC3-TheMuffinStuffers.avi\nFormat: AVI\nFormat/Info: Audio Video Interleave\nFile size: 1.62 GiB\nDuration: 2h 21mn\nOverall bit rate: 1 642 Kbps\n\nVideo\nID: 0\nFormat: MPEG-4 Visual\nFormat profile: Advanced Simple@L5\nFormat settings, BVOP: 2\nFormat settings, QPel: No\nFormat settings, GMC: No warppoints\nFormat settings, Matrix: Default (H.263)\nMuxing mode: Packed bitstream\nCodec ID: XVID\nCodec ID/Hint: XviD\nDuration: 2h 21mn\nBit rate: 1 250 Kbps\nWidth: 720 pixels\nHeight: 272 pixels\nDisplay aspect ratio: 2.647\nFrame rate: 29.970 fps\nColor space: YUV\nChroma subsampling: 4:2:0\nBit depth: 8 bits\nScan type: Progressive\nCompression mode: Lossy\nBits/(Pixel*Frame): 0.213\nStream size: 1.24 GiB (76%)\nWriting library: XviD 73\n\nAudio\nID: 1\nFormat: AC-3\nFormat/Info: Audio Coding 3\nMode extension: CM (complete main)\nFormat settings, Endianness: Big\nCodec ID: 2000\nDuration: 2h 21mn\nBit rate mode: Constant\nBit rate: 384 Kbps\nChannel(s): 2 channels\nChannel positions: Front: L R\nSampling rate: 44.1 KHz\nCompression mode: Lossy\nStream size: 389 MiB (23%)\nAlignment: Aligned on interleaves\nInterleave, duration: 70 ms (2.09 video frames)\nInterleave, preload duration: 208 ms\nTitle: Straight Outta Compton 2015_new \n\nScreens : - \n &lt;a href=&quot;\nhttp://imgsparrow.co/image/8bZ&quot; rel=&quot;nofollow&quot; target=&quot;_NEW&quot;&gt;\nhttp://imgsparrow.co/image/8bZ&lt;/a&gt; &lt;a href=&quot;\nhttp://imgsparrow.co/image/8ba&quot; rel=&quot;nofollow&quot; target=&quot;_NEW&quot;&gt;\nhttp://imgsparrow.co/image/8ba&lt;/a&gt; &lt;a href=&quot;\nhttp://imgsparrow.co/image/8bf&quot; rel=&quot;nofollow&quot; target=&quot;_NEW&quot;&gt;\nhttp://imgsparrow.co/image/8bf&lt;/a&gt; &lt;a href=&quot;\nhttp://imgsparrow.co/image/8bI&quot; rel=&quot;nofollow&quot; target=&quot;_NEW&quot;&gt;\nhttp://imgsparrow.co/image/8bI&lt;/a&gt; &lt;a href=&quot;\nhttp://imgsparrow.co/image/8bP&quot; rel=&quot;nofollow&quot; target=&quot;_NEW&quot;&gt;\nhttp://imgsparrow.co/image/8bP&lt;/a&gt; &lt;a href=&quot;\nhttp://imgsparrow.co/image/8bW&quot; rel=&quot;nofollow&quot; target=&quot;_NEW&quot;&gt;\nhttp://imgsparrow.co/image/8bW&lt;/a&gt;\n &lt;a href=&quot;\nhttp://imgsparrow.co/image/N2&quot; rel=&quot;nofollow&quot; target=&quot;_NEW&quot;&gt;\nhttp://imgsparrow.co/image/N2&lt;/a&gt;",
  "parsed": {
    "xt": "urn:btih:1acc2e11a5f108bb9ff93aaeb7ec1e82a0b8967f",
    "dn": "Straight Outta Compton 2015 CAM XviD AC3-TheMuffinStuffers",
    "tr": [
      "udp://exodus.desync.com:6969",
      "udp://open.demonii.com:1337",
      "udp://tracker.coppersurfer.tk:6969",
      "udp://tracker.openbittorrent.com:80"
    ],
    "infoHash": "1acc2e11a5f108bb9ff93aaeb7ec1e82a0b8967f",
    "infoHashBuffer": {
      "type": "Buffer",
      "data": [
        26,
        204,
        46,
        17,
        165,
        241,
        8,
        187,
        159,
        249,
        58,
        174,
        183,
        236,
        30,
        130,
        160,
        184,
        150,
        127
      ]
    },
    "name": "Straight Outta Compton 2015 CAM XviD AC3-TheMuffinStuffers",
    "announce": [
      "udp://exodus.desync.com:6969",
      "udp://open.demonii.com:1337",
      "udp://tracker.coppersurfer.tk:6969",
      "udp://tracker.openbittorrent.com:80"
    ],
    "urlList": []
  },
  "previous": 94,
  "peers": 6,
  "last_updated": "2016-12-24T18:41:09.048Z"
}